<svg width="2240" height="2961" viewBox="0 0 2240 2961" fill="none" xmlns="http://www.w3.org/2000/svg">
<path d="M487.569 0.832031C459.94 5.29517 426.784 19.7476 403.406 37.6003C332.632 91.3713 277.798 205.502 254.632 347.687C245.918 401.458 239.967 476.057 239.967 533.016C239.967 600.177 247.831 686.04 259.095 745.337C261.646 758.514 262.921 770.203 261.858 771.053C261.008 771.904 250.594 780.405 238.905 789.756C198.948 821.636 153.254 870.732 121.799 915.576C61.4392 1001.23 22.333 1098.57 5.96794 1203.98C-0.408064 1245.64 -2.10833 1329.8 2.99247 1371.46C14.2568 1467.53 43.1613 1548.71 92.6816 1623.1L108.834 1647.12L104.158 1654.98C71.0032 1710.66 42.7362 1791.21 29.5592 1868.58C19.145 1929.79 17.8698 1946.15 17.8698 2028.19C17.8698 2110.86 18.9325 2127.23 28.709 2184.4C40.3984 2252.84 64.2021 2325.31 90.7688 2373.56C99.4827 2389.28 120.736 2422.01 123.286 2423.71C124.137 2424.14 121.586 2432 117.548 2441.14C86.9432 2508.09 60.8016 2597.14 49.9624 2672.17C42.3112 2723.6 41.2485 2740.18 41.2485 2794.37C41.2485 2863.45 45.0741 2897.03 59.5264 2952.07L61.6517 2960.15H152.616H243.793L237.842 2948.88C201.074 2880.87 197.673 2754.63 229.341 2628.6C243.793 2570.36 260.158 2527.64 290.763 2468.77L309.041 2433.07V2411.17C309.041 2390.77 308.616 2388.43 302.027 2375.04C296.926 2364.84 290.125 2356.13 278.011 2344.23C257.395 2324.25 242.518 2303.21 230.616 2277.28C178.333 2163.79 168.131 1995.25 204.899 1851.57C220.202 1791.64 245.493 1738.29 272.06 1709.18C290.125 1689.2 299.477 1666.88 299.477 1643.72C299.477 1619.7 290.975 1599.93 271.847 1579.32C217.014 1520.66 183.221 1449.25 171.107 1366.15C153.891 1247.77 185.134 1118.76 256.12 1016.53C325.618 916.214 423.171 851.816 532.201 834.601C556.642 830.563 602.337 831.2 627.841 835.876C655.683 840.764 673.111 839.277 690.964 830.775C713.067 820.361 724.119 807.397 737.083 777.642C748.56 751.075 757.487 736.623 781.503 706.656C810.407 670.738 838.249 646.296 882.881 616.754C933.889 583.386 991.911 559.158 1049.72 547.468C1070.76 543.218 1080.54 542.58 1119.86 542.58C1159.17 542.58 1168.95 543.218 1189.99 547.468C1274.79 564.684 1358.96 608.465 1426.12 670.525C1440.57 683.915 1475.21 726.847 1486.26 744.699C1490.51 751.713 1497.95 766.59 1502.63 777.642C1515.59 807.397 1526.65 820.361 1548.75 830.775C1565.96 839.064 1584.03 840.764 1610.81 836.301C1653.1 829.075 1685.62 829.713 1727.06 838.214C1868.19 866.694 1991.03 982.949 2045.44 1138.74C2092.83 1275.4 2079.45 1418.43 2008.88 1527.67C1996.98 1546.16 1985.08 1561.04 1967.86 1579.32C1930.67 1619.06 1930.67 1668.37 1967.65 1709.18C2028.44 1775.7 2066.48 1939.35 2055 2083.66C2047.35 2178.88 2022.91 2264.1 1989.33 2312.35C1983.38 2320.85 1971.05 2335.3 1961.7 2344.23C1949.59 2356.13 1942.79 2364.84 1937.69 2375.04C1931.1 2388.43 1930.67 2390.77 1930.67 2411.17V2433.07L1948.95 2468.77C1979.55 2527.64 1995.92 2570.36 2010.37 2628.6C2041.61 2752.93 2038.85 2876.62 2003.15 2946.97C2000.17 2952.92 1997.62 2958.45 1997.62 2959.09C1997.62 2959.72 2038.21 2960.15 2087.95 2960.15H2178.06L2180.4 2951.01C2181.67 2946.12 2183.8 2938.68 2184.86 2934.43C2187.2 2925.08 2191.88 2897.45 2195.7 2870.88C2199.31 2844.11 2199.31 2745.49 2195.7 2715.73C2182.1 2607.77 2159.36 2522.12 2122.16 2441.14C2118.13 2432 2115.58 2424.14 2116.43 2423.71C2117.49 2423.08 2123.44 2414.58 2129.82 2405.01C2176.15 2334.87 2204.63 2246.67 2219.08 2130.21C2222.91 2098.11 2222.91 1960.18 2219.08 1929.36C2208.88 1849.87 2196.55 1795.89 2176.15 1741.27C2167.65 1718.53 2145.12 1670.5 2135.55 1654.98L2130.88 1647.12L2147.03 1623.1C2196.55 1548.71 2225.46 1467.53 2236.72 1371.46C2241.82 1329.8 2240.12 1245.64 2233.74 1203.98C2217.17 1098.36 2178.27 1001.44 2117.91 915.576C2086.46 870.732 2040.76 821.636 2000.81 789.756C1989.12 780.405 1978.7 771.904 1977.85 771.053C1976.79 770.203 1978.07 758.514 1980.62 745.337C2006.33 611.228 2005.48 443.964 1978.49 313.256C1955.11 199.338 1912.61 108.799 1857.77 56.5159C1813.99 14.8594 1769.36 -2.99365 1715.8 0.406982C1592.96 7.63306 1493.92 148.968 1454.81 371.703C1448.43 407.621 1442.91 449.703 1442.91 461.18C1442.91 465.643 1442.06 469.256 1440.99 469.256C1439.93 469.256 1431.64 465.005 1422.72 459.692C1327.93 403.583 1222.51 373.616 1119.86 373.616C1017.2 373.616 911.786 403.583 816.996 459.692C808.07 465.005 799.781 469.256 798.718 469.256C797.655 469.256 796.805 465.643 796.805 461.18C796.805 449.278 791.067 405.921 784.903 371.703C749.41 171.709 668.01 39.3005 559.83 5.93286C544.953 1.46973 502.659 -1.50586 487.569 0.832031ZM523.7 173.834C554.304 198.063 588.31 267.349 607.863 344.924C611.476 358.951 615.302 375.104 616.364 381.054C617.214 386.793 619.552 399.758 621.465 409.747C629.754 454.804 633.58 503.474 634.005 562.771L634.217 621.217L619.552 642.896L604.887 664.787H570.67C530.713 664.787 490.969 669.887 452.926 680.089C439.324 683.49 426.147 686.89 423.596 687.528C419.558 688.378 418.921 687.103 416.583 669.675C404.043 575.098 404.681 470.319 418.496 383.18C433.798 286.052 469.504 198.063 504.359 172.134C512.648 165.97 514.136 166.183 523.7 173.834ZM1735.57 172.347C1756.61 187.862 1779.77 229.093 1796.99 281.802C1831.63 387.218 1841.41 531.953 1823.13 669.675C1820.79 687.103 1820.15 688.378 1816.12 687.528C1813.57 686.89 1800.39 683.49 1786.79 680.089C1748.74 669.887 1709 664.787 1669.04 664.787H1634.82L1620.16 642.896L1605.5 621.217L1605.71 562.771C1606.13 480.308 1613.78 415.91 1632.06 344.286C1651.4 267.349 1685.62 198.063 1716.01 173.834C1725.58 166.183 1727.06 165.971 1735.57 172.347Z" fill="black"/>
<path d="M1086.91 1242.03C1040.79 1246.49 1028.26 1248.19 1006.15 1252.66C970.234 1260.09 922.201 1276.67 888.833 1293.04C772.79 1349.78 692.877 1444.36 668.436 1553.82C663.548 1575.49 662.91 1582.72 662.91 1619.28C662.91 1655.41 663.548 1663.27 668.223 1683.89C700.741 1826.92 832.512 1932.55 1002.96 1951.89C1039.94 1955.93 1199.77 1955.93 1236.75 1951.89C1373.62 1936.38 1491.37 1862.2 1544.29 1758.06C1558.31 1730.22 1565.11 1712.15 1571.49 1683.89C1576.17 1663.27 1576.8 1655.41 1576.8 1619.28C1576.8 1582.72 1576.17 1575.49 1571.28 1553.82C1535.79 1394.84 1381.49 1269.66 1192.33 1245.85C1167.68 1242.88 1103.07 1240.33 1086.91 1242.03ZM1166.4 1357.65C1229.52 1364.45 1293.07 1386.98 1344.08 1420.98C1371.5 1439.26 1410.18 1477.52 1426.76 1502.59C1447.16 1533.62 1458.85 1565.29 1464.16 1603.76C1466.5 1621.4 1465.22 1634.79 1458.85 1663.27C1448.86 1705.78 1417.83 1750.2 1375.96 1781.23C1356.41 1795.47 1315.81 1816.08 1290.95 1824.16C1243.76 1839.25 1212.95 1842.01 1102.85 1841.16C1031.02 1840.52 1018.27 1839.89 997.65 1836.06C927.302 1822.88 871.618 1794.83 831.237 1752.11C798.507 1717.68 783.629 1686.22 775.553 1635.43C771.94 1611.84 778.741 1572.73 792.556 1539.79C809.346 1499.62 852.703 1449.67 895.634 1420.98C945.367 1387.83 1010.83 1364.24 1070.97 1357.86C1094.14 1355.31 1143.24 1355.31 1166.4 1357.65Z" fill="black"/>
<path d="M1038.67 1512.8C1022.51 1521.51 1011.25 1543.61 1014.65 1559.98C1018.48 1577.62 1033.99 1595.47 1058.22 1610.14C1071.18 1618 1072.03 1619.06 1072.67 1626.93C1073.1 1631.6 1071.4 1644.99 1069.06 1656.89C1066.51 1668.58 1064.6 1680.91 1064.6 1684.31C1064.81 1693.45 1073.31 1708.33 1082.24 1715.55C1090.1 1721.93 1091.59 1722.14 1113.69 1722.78C1133.88 1723.42 1138.13 1722.99 1146.21 1719.17C1167.04 1708.97 1172.35 1690.26 1164.7 1654.34C1158.32 1624.38 1159.6 1619.7 1175.54 1610.56C1192.33 1600.79 1210.18 1583.57 1215.49 1571.88C1225.7 1549.56 1216.34 1524.27 1193.82 1512.58C1188.29 1509.82 1181.49 1508.55 1171.5 1508.55C1155.99 1508.55 1146 1512.16 1127.72 1523.85L1117.3 1530.44L1110.72 1526.4C1083.72 1510.46 1078.84 1508.55 1062.47 1508.76C1050.78 1508.76 1044.41 1509.82 1038.67 1512.8Z" fill="black"/>
<path d="M522.635 1266.04C485.017 1277.95 456.963 1305.58 442.51 1344.89C435.497 1363.6 432.096 1393.14 435.072 1409.08C442.085 1447.12 473.328 1481.77 508.821 1491.33C553.453 1503.02 586.821 1495.37 616.363 1466.04C633.578 1449.25 642.929 1434.58 652.281 1410.78C659.082 1393.99 659.507 1391.01 659.507 1367.21L659.72 1341.71L650.793 1323.43C636.553 1294.52 610.837 1273.06 581.082 1265.19C564.292 1260.94 537.3 1261.16 522.635 1266.04Z" fill="black"/>
<path d="M1657.78 1265.41C1628.66 1273.27 1602.73 1294.95 1588.92 1323.43L1579.99 1341.71L1580.2 1367.21C1580.2 1391.01 1580.63 1393.99 1587.43 1410.78C1596.78 1434.58 1606.13 1449.25 1623.35 1466.04C1652.89 1495.37 1686.26 1503.02 1730.89 1491.33C1756.61 1484.53 1782.32 1462.85 1794.65 1437.56C1805.28 1416.09 1807.83 1400.58 1804.43 1376.14C1796.56 1320.24 1763.83 1279.65 1715.16 1265.41C1700.92 1261.16 1673.29 1261.16 1657.78 1265.41Z" fill="black"/>
</svg>
